<svg xmlns="http://www.w3.org/2000/svg" xmlns:xlink="http://www.w3.org/1999/xlink" viewBox="0 0 757 473"><path d="M654 316c-1-3-2-6-1-9s3-5 6-6l-1-35 16 9-1 33a10 10 0 0 1-19 8z" fill="#a0616a"/><path d="m675 293-14 2a5 5 0 0 1-5-4l-6-45-29-40a14 14 0 0 1 3-20 14 14 0 0 1 19 4l30 48 6 50a5 5 0 0 1-4 5z" fill="#f9a826"/><path d="M627 460h-13l-5-47h18v47z" fill="#a0616a"/><path d="M606 456h23v15h-38a15 15 0 0 1 15-15z" fill="#2f2e41"/><path d="m678 439-9 8-34-34 12-9 31 35z" fill="#a0616a"/><path d="m660 450 18-15 10 11-29 25a15 15 0 0 1 1-21z" fill="#2f2e41"/><g fill="#a0616a"><path d="M504 189c2 0 5 0 8 2s4 5 4 8l34 10-14 12-30-12a10 10 0 0 1-2-20z"/><circle cx="611" cy="131" r="25"/></g><g fill="#2f2e41"><path d="m628 451-17-1a5 5 0 0 1-4-5l-5-144a4 4 0 0 1 4-4l34-5a5 5 0 0 1 5 5l-13 77 1 72a5 5 0 0 1-4 5 4 4 0 0 1-1 0z"/><path d="m650 434-59-65-1-4 8-69c0-3 2-5 5-4l35 2a5 5 0 0 1 4 6l-21 64c-1 1 0 2 1 3l49 52a5 5 0 0 1 0 7l-15 9a5 5 0 0 1-6-1z"/></g><g fill="#f9a826"><path d="M606 170s15-13 22-6c0 0 33 21 19 77 0 0 12 54 7 56s-56 9-60 3-6-98 12-130z"/><path d="m519 217 2-14a5 5 0 0 1 5-4l45 9 48-16a14 14 0 0 1 17 10 14 14 0 0 1-10 16l-54 14-50-10h-1c-1-1-3-3-2-5z"/></g><path d="M621 151c2-6 4-13 0-16l-9-3c-10 0-19-5-24-13s-2-20 7-23c6-3 12-1 18 0l18 6c6 1 11 3 15 7 6 6 6 17 1 24s-12 16-21 18z" fill="#2f2e41"/><g fill="#3f3d56"><path d="M756 473H508a1 1 0 1 1 0-2h248a1 1 0 1 1 0 2zM494 0H7a7 7 0 0 0-7 7v360a7 7 0 0 0 7 7h487a7 7 0 0 0 7-7V7a7 7 0 0 0-7-7zm5 367c0 3-2 5-5 5H7c-3 0-5-2-5-5V7c0-3 2-5 5-5h487c3 0 5 2 5 5z"/><path d="M1 28h499v2H1z"/><circle cx="18" cy="15" r="6"/><circle cx="35" cy="15" r="6"/><circle cx="53" cy="15" r="6"/><path d="M302 311a1 1 0 0 1-1-1v-41a1 1 0 1 1 2 0v41a1 1 0 0 1-1 1z"/><use xlink:href="#a"/><path d="M187 253a1 1 0 0 1-1-2l57-33a1 1 0 0 1 1 2l-57 33z"/><use xlink:href="#a" x="59" y="50"/><path d="M246 303a1 1 0 0 1-1-2l57-33a1 1 0 1 1 1 2l-57 33zm-2-101a1 1 0 0 1-1-1v-36a1 1 0 0 1 1-1 1 1 0 0 1 1 1v36a1 1 0 0 1-1 1z"/></g><use xlink:href="#b" fill="#ccc"/><g fill="#3f3d56"><path d="M214 153h-56a1 1 0 1 1 0-2h56a1 1 0 1 1 0 2zm30-14a1 1 0 0 1-1-1v-35a1 1 0 1 1 2 0v35a1 1 0 0 1-1 1z"/><use xlink:href="#c"/><use xlink:href="#d"/></g><g fill="#ccc"><use xlink:href="#e"/><path d="M257 106h-26c-3 0-5-2-5-5V88c0-2 2-4 5-4h26c2 0 4 2 4 4v13c0 3-2 5-4 5z"/><use xlink:href="#f"/><use xlink:href="#f" y="63"/></g><g fill="#3f3d56"><path d="M329 153h-55a1 1 0 1 1 0-2h55a1 1 0 1 1 0 2z"/><use xlink:href="#d" x="268" y="-32"/><use xlink:href="#c" x="268" y="32"/></g><g fill="#ccc"><use xlink:href="#e" x="192"/><use xlink:href="#e" x="267" y="-31"/><use xlink:href="#e" x="267" y="32"/><use xlink:href="#b" x="-58" y="51"/><use xlink:href="#b" x="58" y="51"/><use xlink:href="#b" x="5" y="100"/><use xlink:href="#b" x="116" y="100"/><use xlink:href="#b" x="58" y="100"/></g><path d="M275 170h-63c-2 0-4-2-4-5v-26c0-2 2-4 4-4h63c3 0 5 2 5 4v26c0 3-2 5-5 5z" fill="#f9a826"/><defs><path d="m300 253-57-33a1 1 0 1 1 1-2l57 33a1 1 0 0 1-1 2z" id="a"/><path d="M257 221h-26c-3 0-5-2-5-4v-14c0-2 2-4 5-4h26c2 0 4 2 4 4v14c0 2-2 4-4 4z" id="b"/><path d="M137 153h-1l-54-32a1 1 0 1 1 1-2l54 32a1 1 0 0 1 0 2z" id="c"/><path d="M83 185a1 1 0 0 1-1-2l54-32a1 1 0 1 1 1 2l-54 32z" id="d"/><path d="M154 169h-13c-3 0-5-2-5-4v-26c0-3 2-5 5-5h13c3 0 5 2 5 5v26c0 2-2 4-5 4z" id="e"/><path d="M79 138H66c-3 0-5-2-5-4v-26c0-3 2-5 5-5h13c3 0 5 2 5 5v26c0 2-2 4-5 4z" id="f"/></defs></svg>