<svg xmlns="http://www.w3.org/2000/svg" xmlns:xlink="http://www.w3.org/1999/xlink" width="756.96" height="473.36" xmlns:v="https://vecta.io/nano"><path d="M654.23 315.877c-1.556-2.537-1.909-5.632-.964-8.454s3.092-5.08 5.863-6.166l-1.421-35.707 15.897 9.598-1.087 32.436a10.11 10.11 0 0 1-18.287 8.292z" fill="#a0616a"/><path d="M675.447 292.729l-14.132 2.258a4.5 4.5 0 0 1-5.17-3.851l-5.979-45.03-29.545-40.432a13.58 13.58 0 0 1 3.653-19.453h-.001a13.58 13.58 0 0 1 18.754 4.13L673.2 237.57l6.006 50.181c.039.32.043.644.013.965-.191 2.043-1.745 3.696-3.772 4.013z" fill="#f9a826"/><path fill="#a0616a" d="M626.725 459.863h-12.26l-5.832-47.288 18.094.001-.002 47.287z"/><path d="M605.708 456.36h23.644a0 0 0 0 1 0 0v14.887a0 0 0 0 1 0 0h-38.531a0 0 0 0 1 0 0h0a14.887 14.887 0 0 1 14.887-14.887z" fill="#2f2e41"/><path fill="#a0616a" d="M678.45 438.879l-9.16 8.148-34.145-33.667 11.876-9.813 31.429 35.332z"/><path d="M660.419 450.23l17.666-15.715h0l9.894 11.123h0l-28.789 25.609h0 0c-2.624-2.95-3.969-6.822-3.739-10.763s2.017-7.63 4.967-10.254z" fill="#2f2e41"/><g fill="#a0616a"><path d="M503.523 189.457c2.898-.675 5.947-.032 8.325 1.756s3.843 4.539 3.999 7.511l34.327 9.93-14.128 12.051-30.432-11.277a10.11 10.11 0 0 1-2.091-19.97z"/><circle cx="610.547" cy="130.628" r="24.561"/></g><g fill="#2f2e41"><path d="M628.23 451.009l-17.064-1.365a4.5 4.5 0 0 1-4.139-4.337l-4.763-143.833a4.49 4.49 0 0 1 3.876-4.605l34.02-4.747a4.5 4.5 0 0 1 5.058 5.214L632.2 373.584c-.036.21-.052.422-.05.635l.938 72.245a4.5 4.5 0 0 1-4.503 4.56 4.34 4.34 0 0 1-.356-.015z"/><path d="M650.084 433.758l-58.619-65.238c-.852-.949-1.262-2.216-1.127-3.484l7.403-69.405c.253-2.404 2.362-4.177 4.774-4.013l35.976 2.398a4.5 4.5 0 0 1 3.964 5.931l-21.555 63.768c-.422 1.239-.114 2.611.797 3.551l49.793 51.604a4.5 4.5 0 0 1-.949 6.999l-14.819 8.757a4.51 4.51 0 0 1-5.636-.866z"/></g><g fill="#f9a826"><path d="M606.145 170.36s15-13 22-6c0 0 32.5 20.5 18.5 76.5 0 0 12 54 7 56s-55.5 9.5-59.5 3.5-6-98 12-130z"/><path d="M518.783 216.9l2.322-14.122a4.5 4.5 0 0 1 5.287-3.689l44.613 8.551 47.694-15.261a13.58 13.58 0 0 1 17.303 9.61v-.001a13.58 13.58 0 0 1-9.842 16.489l-54.332 13.714-49.509-10.153c-.316-.065-.624-.163-.92-.292-1.878-.827-2.956-2.823-2.616-4.847z"/></g><path d="M621.086 150.551c2.245-5.195 4.144-12.113-.161-15.785-2.497-2.13-6.094-2.135-9.365-2.4-9.217-.747-18.706-4.988-23.211-13.064s-1.989-20.084 6.51-23.728c5.729-2.456 12.297-.783 18.294.918l18.006 5.106c5.35 1.517 10.967 3.19 14.819 7.201 6.143 6.397 5.684 17.212.805 24.618s-12.226 15.131-20.638 17.943z" fill="#2f2e41"/><g fill="#3f3d56"><path d="M755.96 473.36h-248a1 1 0 1 1 0-2h248a1 1 0 1 1 0 2zM494 0H7a7.01 7.01 0 0 0-7 7v360a7.01 7.01 0 0 0 7 7h487a7.01 7.01 0 0 0 7-7V7a7.01 7.01 0 0 0-7-7zm5 367c-.001 2.761-2.239 4.999-5 5H7c-2.761-.001-4.999-2.239-5-5V7c.001-2.761 2.239-4.999 5-5h487c2.761.001 4.999 2.239 5 5z"/><path d="M1 28.04h499v2H1z"/><circle cx="18" cy="15" r="6"/><circle cx="35.25" cy="15" r="6"/><circle cx="52.5" cy="15" r="6"/><path d="M301.823 311.305a1 1 0 0 1-1-1v-41a1 1 0 1 1 2 0v41a1 1 0 0 1-1 1z"/><use xlink:href="#B"/><path d="M186.824 253.305a1 1 0 0 1-.504-1.864l56.815-33.104a1 1 0 0 1 1.007 1.729l-56.815 33.104a1 1 0 0 1-.502.136z"/><use xlink:href="#B" x="59" y="50"/><path d="M245.824 303.305a1 1 0 0 1-.504-1.864l56.815-33.104a1 1 0 1 1 1.007 1.729l-56.815 33.104a1 1 0 0 1-.502.136zm-2.001-101a1 1 0 0 1-1-.998l-.093-36.387a1 1 0 0 1 .998-1.002h.002a1 1 0 0 1 1 .998l.093 36.387a1 1 0 0 1-.998 1.002z"/></g><use xlink:href="#C" fill="#ccc"/><g fill="#3f3d56"><path d="M213.638 153.201h-55.433a1 1 0 1 1 0-2h55.433a1 1 0 1 1 0 2zm30.092-14.283a1 1 0 0 1-1-1v-34.613a1 1 0 1 1 2 0v34.613a1 1 0 0 1-1 1z"/><use xlink:href="#D"/><use xlink:href="#E"/></g><g fill="#ccc"><use xlink:href="#F"/><path d="M256.756 105.996h-26.052c-2.484-.003-4.497-2.016-4.5-4.5V88.114c.003-2.484 2.016-4.497 4.5-4.5h26.052c2.484.003 4.497 2.016 4.5 4.5v13.382c-.003 2.484-2.016 4.497-4.5 4.5z"/><use xlink:href="#G"/><use xlink:href="#G" y="63"/></g><g fill="#3f3d56"><path d="M329.256 153.201h-55.434a1 1 0 1 1 0-2h55.434a1 1 0 1 1 0 2z"/><use xlink:href="#E" x="268" y="-31.896"/><use xlink:href="#D" x="268" y="31.896"/></g><g fill="#ccc"><use xlink:href="#F" x="192.434"/><use xlink:href="#F" x="267.434" y="-31"/><use xlink:href="#F" x="267.434" y="32"/><use xlink:href="#C" x="-58" y="51"/><use xlink:href="#C" x="57.815" y="51"/><use xlink:href="#C" x="4.815" y="100"/><use xlink:href="#C" x="115.815" y="100"/><use xlink:href="#C" x="57.815" y="100"/></g><path d="M275.4 169.597h-63.338c-2.484-.003-4.497-2.016-4.5-4.5v-25.792c.003-2.484 2.016-4.497 4.5-4.5H275.4c2.484.003 4.497 2.016 4.5 4.5v25.792c-.003 2.484-2.016 4.497-4.5 4.5z" fill="#f9a826"/><defs ><path id="B" d="M300.452 253.305c-.177 0-.35-.047-.502-.136l-56.815-33.104a1 1 0 1 1 1.007-1.729l56.815 33.104a1 1 0 0 1-.504 1.864z"/><path id="C" d="M256.756 221.221h-26.052c-2.484-.003-4.497-2.016-4.5-4.5v-13.381c.003-2.484 2.016-4.497 4.5-4.5h26.052c2.484.003 4.497 2.016 4.5 4.5v13.381c-.003 2.484-2.016 4.497-4.5 4.5z"/><path id="D" d="M136.637 153.201c-.179 0-.355-.048-.509-.14l-53.815-31.896a1 1 0 1 1 1.02-1.721l53.815 31.896a1 1 0 0 1-.511 1.86z"/><path id="E" d="M82.824 185.097a1 1 0 0 1-.511-1.86l53.815-31.896a1 1 0 1 1 1.02 1.721l-53.815 31.896c-.154.091-.33.14-.509.14z"/><path id="F" d="M154.204 169.331h-13.381c-2.484-.003-4.497-2.016-4.5-4.5v-26.052c.003-2.484 2.016-4.497 4.5-4.5h13.381c2.484.003 4.497 2.016 4.5 4.5v26.052c-.003 2.484-2.016 4.497-4.5 4.5z"/><path id="G" d="M79.204 138.331H65.823c-2.484-.003-4.497-2.016-4.5-4.5v-26.052c.003-2.484 2.016-4.497 4.5-4.5h13.381c2.484.003 4.497 2.016 4.5 4.5v26.052c-.003 2.484-2.016 4.497-4.5 4.5z"/></defs></svg>