<!DOCTYPE svg PUBLIC "-//W3C//DTD SVG 1.1//EN" "http://www.w3.org/Graphics/SVG/1.1/DTD/svg11.dtd">
<!-- Uploaded to: SVG Repo, www.svgrepo.com, Transformed by: SVG Repo Mixer Tools -->
<svg version="1.1" id="Layer_1" xmlns="http://www.w3.org/2000/svg" xmlns:xlink="http://www.w3.org/1999/xlink" viewBox="0 0 512 512" xml:space="preserve" width="800px" height="800px" fill="#000000">

<g id="SVGRepo_bgCarrier" strokeWidth="0"/>

<g id="SVGRepo_tracerCarrier" strokeLinecap="round" strokeLinejoin="round"/>

<g id="SVGRepo_iconCarrier"> <path style="fill:#FFD311;" d="M356.175,503.652H155.827c0-55.318,44.856-100.174,100.174-100.174S356.175,448.334,356.175,503.652z "/> <g> <path style="fill:#15E3A6;" d="M27.827,242.087c0,0,172.522-150.261,228.174,0C200.349,392.347,27.827,242.087,27.827,242.087z"/> <path style="fill:#15E3A6;" d="M256.001,242.087c55.652-150.261,228.174,0,228.174,0S311.653,392.347,256.001,242.087z"/> <path style="fill:#15E3A6;" d="M256.001,75.13c55.652-150.261,228.174,0,228.174,0S311.653,225.391,256.001,75.13z"/> <path style="fill:#15E3A6;" d="M27.827,75.13c0,0,172.522-150.261,228.174,0C200.349,225.391,27.827,75.13,27.827,75.13z"/> </g> <g> <path style="fill:#0DD398;" d="M266.396,52.869c-3.778,6.585-7.293,13.887-10.394,22.261c55.652,150.261,228.174,0,228.174,0 s-11.523-10.008-29.503-22.261C406.808,85.488,312.92,133.981,266.396,52.869z"/> <path style="fill:#0DD398;" d="M57.33,52.869C39.351,65.123,27.827,75.13,27.827,75.13s172.522,150.261,228.174,0 c-3.101-8.373-6.617-15.676-10.394-22.261C199.082,133.981,105.194,85.488,57.33,52.869z"/> <path style="fill:#0DD398;" d="M57.33,219.826c-17.979,12.253-29.503,22.261-29.503,22.261s172.522,150.261,228.174,0 c-3.101-8.373-6.617-15.676-10.394-22.261C199.082,300.938,105.194,252.445,57.33,219.826z"/> <path style="fill:#0DD398;" d="M266.396,219.826c-3.778,6.585-7.293,13.887-10.394,22.261c55.652,150.261,228.174,0,228.174,0 s-11.523-10.008-29.503-22.261C406.808,252.445,312.92,300.938,266.396,219.826z"/> </g> <path d="M315.776,169.865c-20.904,5.333-38.109,17.842-51.427,37.307v-97.144c10.555,15.412,23.563,26.49,38.901,33.079 c11.145,4.786,23.387,7.176,36.668,7.176c19.245,0,40.667-5.021,64.068-15.047l-6.575-15.346 c-35.181,15.072-64.644,17.723-87.573,7.875c-17.27-7.417-31.13-22.303-41.325-44.286h22.987l30.946,30.947l11.805-11.806 l-19.139-19.141h32.041l30.946,30.947l11.805-11.806l-19.14-19.141h35.498V66.782h-35.498l19.141-19.14L378.1,35.836l-30.947,30.946 h-32.041l19.141-19.14l-11.805-11.806L291.5,66.782h-23.004c12.077-26.033,29.323-42.055,51.386-47.692 c55.275-14.121,127.585,37.608,151.082,56.046c-10.082,7.929-29.148,21.994-51.962,34.285l7.918,14.698 c35.554-19.154,61.644-41.742,62.737-42.694l7.228-6.294l-7.228-6.294c-3.998-3.484-98.792-85.074-173.882-65.928 c-25.578,6.524-45.62,23.792-59.774,51.411c-14.153-27.619-34.196-44.888-59.775-51.413C121.143-16.245,26.343,65.351,22.344,68.836 l-7.227,6.294l7.228,6.294c3.58,3.119,79.927,68.836,149.752,68.836c8.174,0,16.259-0.902,24.129-2.907 c20.904-5.333,38.109-17.842,51.427-37.307v97.144c-10.555-15.412-23.563-26.49-38.901-33.077 c-27.293-11.723-61.186-9.076-100.737,7.869l6.575,15.346c35.182-15.072,64.647-17.723,87.574-7.875 c17.27,7.417,31.13,22.303,41.325,44.286h-22.987l-30.946-30.947l-11.805,11.806l19.14,19.141H164.85l-30.946-30.947L122.1,214.598 l19.14,19.141H105.74v16.696h35.498l-19.141,19.14l11.805,11.806l30.948-30.946h32.041l-19.141,19.14l11.805,11.806l30.947-30.946 h23.004c-12.077,26.033-29.323,42.055-51.386,47.692C136.844,312.247,64.536,260.52,41.038,242.08 c10.867-8.545,32.171-24.216,57.373-37.129l-7.613-14.859c-38.386,19.669-67.245,44.645-68.454,45.7l-7.228,6.294l7.228,6.294 c3.58,3.119,79.928,68.837,149.753,68.836c8.174,0,16.259-0.902,24.129-2.907c20.904-5.333,38.109-17.842,51.427-37.307v98.649 h16.696v-98.649c13.318,19.466,30.524,31.974,51.427,37.307c7.873,2.008,15.95,2.907,24.129,2.907 c69.821,0,146.174-65.717,149.753-68.836l7.228-6.294l-7.228-6.294C485.66,232.31,390.866,150.716,315.776,169.865z M192.122,131.17 c-55.277,14.116-127.581-37.602-151.08-56.043c23.486-18.45,95.716-70.164,151.057-56.042c22.073,5.631,39.328,21.655,51.408,47.697 h-23.004l-30.946-30.947l-11.805,11.806l19.14,19.141H164.85l-30.946-30.947L122.1,47.641l19.14,19.141H105.74v16.696h35.498 l-19.141,19.14l11.805,11.806l30.948-30.946h32.041l-19.141,19.14l11.805,11.806l30.947-30.946h23.004 C231.432,109.511,214.184,125.534,192.122,131.17z M319.903,298.132c-22.073-5.631-39.328-21.655-51.408-47.697h23.004 l30.946,30.947l11.805-11.806l-19.139-19.141h32.041l30.946,30.947l11.805-11.806l-19.14-19.141h35.498v-16.696h-35.498 l19.141-19.14L378.1,202.793l-30.947,30.946h-32.041l19.141-19.14l-11.805-11.806L291.5,233.739h-23.004 c12.077-26.033,29.323-42.055,51.386-47.692c55.276-14.117,127.581,37.602,151.08,56.043 C447.476,260.54,375.247,312.255,319.903,298.132z"/> <path d="M256.001,395.13c-57.03,0-103.927,44.22-108.203,100.174H66.784V512h378.435v-16.696h-81.014 C359.928,439.35,313.032,395.13,256.001,395.13z M256.001,411.826c47.817,0,87.196,36.745,91.43,83.478H164.572 C168.805,448.572,208.183,411.826,256.001,411.826z"/> <rect x="205.914" y="456.347" width="27.826" height="16.696"/> <rect x="233.74" y="434.087" width="27.826" height="16.696"/> <g> <rect x="72.349" y="66.782" style="fill:#FFFFFF;" width="22.261" height="16.696"/> <rect x="417.392" y="66.782" style="fill:#FFFFFF;" width="22.261" height="16.696"/> <rect x="72.349" y="233.739" style="fill:#FFFFFF;" width="22.261" height="16.696"/> <rect x="417.392" y="233.739" style="fill:#FFFFFF;" width="22.261" height="16.696"/> </g> </g>

</svg>